# xmcd
#
# Track frame offsets:
#	150
#	21577
#	44567
#	66845
#	91092
#	118935
#	128100
#	151997
#	172907
#	192595
#	206430
#	224430
#	246112
#	265500
#	283732
#
# Disc length: 4149 seconds
#
# Revision: 1
# Processed by: cddbd v1.4b41PL1 Copyright (c) Steve Scherf et al.
# Submitted via: audiograbber 1.80
#
DISCID=df10330f
DTITLE=Baris Manco - Süper Babaanne
DYEAR=1900
DGENRE=
TTITLE0=Gülpembe
TTITLE1=Süper Babaanne
TTITLE2=Aman Yavas Aheste
TTITLE3=Düriye
TTITLE4=2023 (Enstrumental)
TTITLE5=Derule
TTITLE6=Binboganin Kizi
TTITLE7=Ölüm Allah' in Emri
TTITLE8=Gülme Ha Gülme
TTITLE9=Nazar Eyle
TTITLE10=Gönül Dagi
TTITLE11=Katip Arzuhalim
TTITLE12=Gamzedeyim
TTITLE13=Estergon Kalesi
TTITLE14=Aslan Yürekli
EXTD=
EXTT0=Eski versiyon, Almanya baskisi
EXTT1=
EXTT2=
EXTT3=
EXTT4=
EXTT5=
EXTT6=
EXTT7=
EXTT8=
EXTT9=
EXTT10=
EXTT11=
EXTT12=
EXTT13=
EXTT14=
PLAYORDER=
